<svg xmlns="http://www.w3.org/2000/svg" width="114" height="114" viewBox="0 0 114 114">
  <g id="Group_617" data-name="Group 617" transform="translate(-331 -3842)">
    <g id="Ellipse_3" data-name="Ellipse 3" transform="translate(331 3842)" fill="none" stroke="#7d8e87" stroke-width="5">
      <circle cx="57" cy="57" r="57" stroke="none"/>
      <circle cx="57" cy="57" r="54.5" fill="none"/>
    </g>
    <path id="Path_882" data-name="Path 882" d="M-6.51-26.722C-6.51-31.31-4.836-36.7.372-36.7c3.782,0,6.51,2.542,6.51,6.7,0,5.332-5.332,7.936-9.114,10.6-7.5,5.146-13.7,9.3-13.7,19.406H15.934V-7.564H-4.588c6.324-8.928,20.274-9.982,20.274-23.126,0-8.494-6.944-13.578-14.88-13.578-10.416,0-16.058,7.626-15.748,17.546Z" transform="translate(387 3920)" fill="#7d8e87"/>
  </g>
</svg>
