<svg id="Layer_2" data-name="Layer 2" xmlns="http://www.w3.org/2000/svg" width="120" height="120" viewBox="0 0 120 120">
  <g id="Layer_1" data-name="Layer 1">
    <path id="Path_873" data-name="Path 873" d="M60,120a60,60,0,1,1,60-60A60.066,60.066,0,0,1,60,120ZM60,4.468A55.532,55.532,0,1,0,115.532,60,55.532,55.532,0,0,0,60,4.468Z" fill="#7d8e87"/>
    <path id="Path_874" data-name="Path 874" d="M131.7,42.26l4.589,6.224-4.763,6.193h3.338l4.719-5.956-4.651-6.461Z" transform="translate(-72.759 -23.377)" fill="#7d8e87"/>
    <path id="Path_875" data-name="Path 875" d="M54.268,172.488l3.1-7.1,7.744,1.032-1.667-2.886-7.516-1.108-3.275,7.256Z" transform="translate(-29.125 -89.852)" fill="#7d8e87"/>
    <path id="Path_876" data-name="Path 876" d="M202.387,171.238l-7.69.862-2.98-7.221-1.667,2.887,2.8,7.064,7.922-.8Z" transform="translate(-105.13 -91.207)" fill="#7d8e87"/>
    <path id="Path_877" data-name="Path 877" d="M75.681,79.446,74.944,61.6H72.057L70.681,79.446h-.929l-7.913-4.392v4.258l-7.672-4.258v4.258L46.49,75.054v4.258h0V91.484H76.468V79.446Z" transform="translate(-25.717 -34.075)" fill="#7d8e87"/>
    <path id="Path_878" data-name="Path 878" d="M184.2,79.446,183.463,61.6h-2.882L179.2,79.446h-.929l-7.913-4.392v4.258l-7.677-4.258v4.258L155,75.054v4.258h0V91.484h29.982V79.446Z" transform="translate(-85.742 -34.075)" fill="#7d8e87"/>
    <path id="Path_879" data-name="Path 879" d="M132.531,175.873,131.785,158H128.9l-1.367,17.873H126.6l-7.909-4.392v4.263l-7.676-4.263v4.263l-7.676-4.263v4.263h0V187.92h29.982V175.873Z" transform="translate(-57.165 -87.401)" fill="#7d8e87"/>
  </g>
</svg>
