<svg id="Layer_2" data-name="Layer 2" xmlns="http://www.w3.org/2000/svg" width="120" height="120" viewBox="0 0 120 120">
  <g id="Layer_1" data-name="Layer 1">
    <path id="Path_880" data-name="Path 880" d="M60,120a60,60,0,1,1,60-60A60.066,60.066,0,0,1,60,120ZM60,4.468A55.532,55.532,0,1,0,115.532,60,55.532,55.532,0,0,0,60,4.468Z" fill="#7d8e87"/>
    <path id="Path_881" data-name="Path 881" d="M122.57,79.24H70.7a4.468,4.468,0,0,0-4.468,4.468v40.25a4.468,4.468,0,0,0,4.468,4.468H122.57a4.468,4.468,0,0,0,4.468-4.468V83.708A4.468,4.468,0,0,0,122.57,79.24ZM104.957,99.513l-17.3,20.045,5.987-15.965-5.518-1.171,5.518-12.444,11.971-.232-6.881,8.49Z" transform="translate(-36.637 -43.833)" fill="#7d8e87"/>
  </g>
</svg>
