<svg id="Layer_2" data-name="Layer 2" xmlns="http://www.w3.org/2000/svg" width="120" height="120" viewBox="0 0 120 120">
  <g id="Layer_1" data-name="Layer 1">
    <path id="Path_869" data-name="Path 869" d="M60,120a60,60,0,1,1,60-60A60.066,60.066,0,0,1,60,120ZM60,4.468A55.532,55.532,0,1,0,115.532,60,55.532,55.532,0,0,0,60,4.468Z" fill="#7d8e87"/>
    <path id="Path_870" data-name="Path 870" d="M129.4,76.482c.679-15.853.894-25.786.572-27.256a2.784,2.784,0,0,0-2.922-2.234,3.723,3.723,0,0,0-3.3,1.743,106.155,106.155,0,0,0-2.529,10.317c-1.975,9.83-1.063,11.242-.764,11.711a48.553,48.553,0,0,1,3.186,5.514Zm-4.044-27.114.076-.085" transform="translate(-66.372 -25.991)" fill="#7d8e87"/>
    <path id="Path_871" data-name="Path 871" d="M81.68,140.59c-14.048,7.332-22.77,12.122-23.878,13.141a2.752,2.752,0,0,0-.492,3.66,3.735,3.735,0,0,0,3.159,1.984,106.065,106.065,0,0,0,10.2-2.971c9.5-3.2,10.277-4.7,10.523-5.188a48.664,48.664,0,0,1,3.177-5.527ZM60.232,157.672l-.107-.027" transform="translate(-31.438 -77.771)" fill="#7d8e87"/>
    <path id="Path_872" data-name="Path 872" d="M150.61,145.544c13.4,8.49,21.895,13.66,23.311,14.12a2.784,2.784,0,0,0,3.414-1.408,3.722,3.722,0,0,0,.139-3.722,104.972,104.972,0,0,0-7.672-7.35c-7.525-6.626-9.2-6.546-9.759-6.519a48.619,48.619,0,0,1-6.367,0Zm25.527,10.049.031.107" transform="translate(-83.313 -77.81)" fill="#7d8e87"/>
    <circle id="Ellipse_2" data-name="Ellipse 2" cx="7.189" cy="7.189" r="7.189" transform="translate(53.298 53.463)" fill="#7d8e87"/>
  </g>
</svg>
