<svg xmlns="http://www.w3.org/2000/svg" width="114" height="114" viewBox="0 0 114 114">
  <g id="Group_618" data-name="Group 618" transform="translate(-331 -3842)">
    <g id="Ellipse_3" data-name="Ellipse 3" transform="translate(331 3842)" fill="none" stroke="#7d8e87" stroke-width="5">
      <circle cx="57" cy="57" r="57" stroke="none"/>
      <circle cx="57" cy="57" r="54.5" fill="none"/>
    </g>
    <path id="Path_884" data-name="Path 884" d="M-3.1-19.654c4.278,0,10.044-.124,10.044,6.448,0,4.154-3.1,6.82-7.068,6.82-5.084,0-7.44-3.844-7.626-8.556h-8.37C-16.306-4.96-9.734.868,0,.868c8.432,0,16.12-5.146,16.12-14.26A9.649,9.649,0,0,0,8.432-23.25v-.124c4.03-1.178,6.076-4.712,6.076-8.866,0-7.75-7.626-12.028-14.57-12.028-8.99,0-14.694,6.076-15,15H-6.7c-.062-4.464,2.232-7.75,6.7-7.75,3.224,0,6.138,2.046,6.138,5.766,0,4.96-5.456,5.7-9.238,5.394Z" transform="translate(387 3920)" fill="#7d8e87"/>
  </g>
</svg>
